PathFileType	4	(X/Y/Z)	s01c0102.trc
DataRate	CameraRate	NumFrames	NumMarkers	Units	OrigDataRate	OrigDataStartFrame	OrigNumFrames
200	200	4	48	mm	200	1750	2000
Frame#	Time	racr			lacr			c7			jug			rlel			rdr			llel			ldr			s2			lic			ric			lasi			rasi			rpsi			lpsi			rgt			lgt			rth1			rth2			rth3			rth4			rlfc			rsh1			rsh2			rsh3			rsh4			rlmal			rmmal			rcal			rtoe			rmt5			lth1			lth2			lth4			lth3			llfc			lsh1			lsh2			lsh3			lsh4			llmal			lmmal			lcal			ltoe			lmt5			SBIKE			LBIKE			RBIKE			
		X1	Y1	Z1	X2	Y2	Z2	X3	Y3	Z3	X4	Y4	Z4	X5	Y5	Z5	X6	Y6	Z6	X7	Y7	Z7	X8	Y8	Z8	X9	Y9	Z9	X10	Y10	Z10	X11	Y11	Z11	X12	Y12	Z12	X13	Y13	Z13	X14	Y14	Z14	X15	Y15	Z15	X16	Y16	Z16	X17	Y17	Z17	X18	Y18	Z18	X19	Y19	Z19	X20	Y20	Z20	X21	Y21	Z21	X22	Y22	Z22	X23	Y23	Z23	X24	Y24	Z24	X25	Y25	Z25	X26	Y26	Z26	X27	Y27	Z27	X28	Y28	Z28	X29	Y29	Z29	X30	Y30	Z30	X31	Y31	Z31	X32	Y32	Z32	X33	Y33	Z33	X34	Y34	Z34	X35	Y35	Z35	X36	Y36	Z36	X37	Y37	Z37	X38	Y38	Z38	X39	Y39	Z39	X40	Y40	Z40	X41	Y41	Z41	X42	Y42	Z42	X43	Y43	Z43	X44	Y44	Z44	X45	Y45	Z45	X46	Y46	Z46	X47	Y47	Z47	X48	Y48	Z48	
1750	8.7500	506.010317	1354.635905	-133.804591	517.223912	1354.733841	-434.242125	415.933456	1427.400219	-283.563418	471.456444	1268.964049	-288.267006	599.415962	1078.131357	-73.517977	731.202699	851.850343	-101.018015	600.157129	1077.657993	-490.934723	724.674055	859.426939	-444.643740	-69.969610	1151.106926	-243.190932	87.850917	1157.497079	-428.132646	120.031336	1135.084893	-112.217677	76.688094	1099.481590	-414.980740	131.075279	1092.057633	-146.381259	-27.261603	1183.047208	-193.434445	-45.984880	1193.418144	-297.933996	60.361980	1039.878141	-67.431856	2.619059	1017.505731	-454.133748	173.320191	976.501307	-70.392403	251.946097	952.424158	-81.879346	334.288219	919.721295	-101.065954	268.144072	1003.146750	-99.568520	406.953917	847.291428	-133.417558	315.701981	781.900157	-95.948145	251.845630	726.233924	-94.249053	178.397450	675.553013	-99.868350	278.975191	690.525291	-134.526873	73.162722	601.377652	-108.900193	108.530349	592.371672	-192.412673	11.676594	590.639036	-159.127496	248.231232	456.445141	-146.430877	143.327488	477.744573	-75.375011	52.964019	892.657867	-461.864130	114.168514	827.731620	-459.333809	154.612722	864.835762	-456.620862	166.672615	763.932792	-436.713576	225.856574	667.342384	-420.198695	188.463808	559.603557	-453.126556	189.535707	472.727501	-448.324949	188.631141	387.377097	-434.359299	246.334388	475.421835	-423.317752	187.568720	258.470709	-414.936737	0.000000	0.000000	-0.000000	146.011751	223.058369	-372.296468	423.000065	209.411029	-383.747522	317.647145	183.504195	-447.222325	-230.478870	890.111031	-256.064631	-22.387850	80.311278	-456.321393	-22.740494	80.276260	-56.128146	
1751	8.7550	506.173901	1354.755311	-133.645113	517.401809	1354.821597	-434.033885	416.057421	1427.589026	-283.423194	471.593319	1269.111319	-288.156433	599.494554	1078.183028	-73.448654	731.183266	851.856757	-100.984708	600.338958	1077.771777	-490.671223	724.704006	859.422134	-444.596134	-69.827763	1151.139191	-243.278514	88.005303	1157.504380	-428.082713	120.186464	1135.088030	-112.182259	76.902159	1099.499423	-414.914169	131.210509	1092.004702	-146.323746	-27.149222	1183.064146	-193.385277	-45.849002	1193.456742	-297.892171	60.449678	1039.848134	-67.403316	2.877208	1017.537963	-454.119994	173.340114	976.460860	-70.265899	251.998653	952.357360	-81.705291	334.374779	919.672443	-100.865548	268.237604	1003.079645	-99.348778	407.047395	847.173362	-133.171247	315.770151	781.786959	-95.749288	251.896129	726.151706	-94.105390	178.442552	675.506920	-99.764790	279.022882	690.469821	-134.401318	73.180442	601.370159	-108.878973	108.576552	592.367429	-192.363726	11.698611	590.652900	-159.113428	248.226219	456.416514	-146.408082	143.320032	477.727505	-75.375960	53.218926	892.708309	-461.835122	114.402733	827.807637	-459.278468	154.816770	864.895597	-456.533467	166.881067	763.987980	-436.666496	226.066461	667.387462	-420.162235	188.637896	559.654569	-453.114936	189.687358	472.775532	-448.299117	188.748863	387.441769	-434.358753	246.498786	475.478928	-423.311874	187.614649	258.546413	-414.937844	0.000000	0.000000	-0.000000	146.059865	223.116697	-372.275847	423.028555	209.398988	-383.752567	317.682086	183.539606	-447.212992	-230.474721	890.129791	-256.055614	-22.386034	80.325984	-456.305329	-22.758647	80.292560	-56.118711	
1752	8.7600	506.337840	1354.850950	-133.481675	517.587922	1354.919706	-433.841211	416.150015	1427.778429	-283.258312	471.703868	1269.248559	-288.035069	599.576065	1078.232921	-73.399881	731.182231	851.873019	-100.981853	600.490696	1077.850643	-490.421437	724.708110	859.410269	-444.572515	-69.695432	1151.150994	-243.230121	88.107028	1157.548439	-427.978822	120.342153	1135.084098	-112.132661	77.100720	1099.538809	-414.827016	131.332462	1091.980860	-146.249295	-27.028589	1183.065275	-193.329666	-45.716387	1193.476883	-297.852913	60.519624	1039.830586	-67.373900	3.113613	1017.595390	-454.094564	173.415788	976.397691	-70.147769	252.041185	952.298914	-81.551873	334.447267	919.594041	-100.646328	268.328575	1002.992663	-99.153003	407.132326	847.102361	-132.865370	315.830950	781.698291	-95.564201	251.942984	726.069505	-93.940166	178.475823	675.469485	-99.662188	279.070419	690.394508	-134.237105	73.199146	601.385779	-108.853342	108.596695	592.395121	-192.359102	11.733545	590.676337	-159.106990	248.234084	456.403427	-146.414157	143.320667	477.731653	-75.359818	53.477465	892.787865	-461.799442	114.649835	827.881113	-459.233727	155.043200	864.963948	-456.455788	167.092237	764.046715	-436.625123	226.284366	667.441813	-420.126308	188.826182	559.724349	-453.080413	189.853120	472.828060	-448.278635	188.881782	387.516360	-434.361341	246.649688	475.500129	-423.270147	187.693699	258.595542	-414.934953	0.000000	0.000000	-0.000000	146.097002	223.206314	-372.310016	423.070582	209.379247	-383.743970	317.714252	183.558064	-447.211989	-230.473905	890.147247	-256.042607	-22.396489	80.311699	-456.314650	-22.756646	80.290790	-56.118722	
1753	8.7650	506.477091	1354.961880	-133.341005	517.794052	1354.992371	-433.654282	416.257624	1427.949905	-283.117699	471.832864	1269.375756	-287.930246	599.632686	1078.277394	-73.330223	731.193955	851.887015	-100.973259	600.604946	1077.925769	-490.206225	724.723934	859.402100	-444.551836	-69.246653	1151.387647	-240.981776	88.325591	1157.608624	-427.952151	120.473795	1135.079670	-112.083865	77.299725	1099.573846	-414.735039	131.473585	1091.855833	-146.186703	-26.862925	1183.044572	-193.298135	-45.576146	1193.499137	-297.809594	60.586104	1039.830330	-67.335839	3.349812	1017.647437	-454.070087	173.464853	976.355488	-70.006638	252.095167	952.227105	-81.358853	334.509544	919.512592	-100.446405	268.408901	1002.946137	-98.971511	407.250550	847.032384	-132.587069	315.903683	781.618883	-95.367817	251.992204	725.978727	-93.778439	178.501575	675.432481	-99.565817	279.138726	690.328566	-134.069408	73.216182	601.387459	-108.836749	108.650965	592.414953	-192.326776	11.751516	590.706107	-159.102111	248.219779	456.376415	-146.411234	143.318316	477.726215	-75.360495	53.760681	892.894453	-461.770983	114.894789	827.975118	-459.193252	155.290769	865.045074	-456.369551	167.327253	764.104021	-436.573349	226.510900	667.502215	-420.082959	189.009163	559.802914	-453.052817	190.015360	472.903097	-448.259599	189.018900	387.585935	-434.365192	246.806281	475.541686	-423.241521	187.755154	258.659203	-414.941407	0.000000	0.000000	-0.000000	146.139245	223.303326	-372.315272	423.110824	209.356578	-383.753196	317.735006	183.561311	-447.222139	-230.468069	890.155676	-256.028784	-22.395196	80.314416	-456.316168	-22.751703	80.285811	-56.119201	
